<mxfile host="app.diagrams.net" modified="2020-12-20T22:00:09.616Z" agent="5.0 (Macintosh; Intel Mac OS X 10_15_6) AppleWebKit/605.1.15 (KHTML, like Gecko) Version/14.0.1 Safari/605.1.15" etag="1fXIrFTkCBs5WU9z1G7y" version="14.1.1" type="github">
  <diagram id="nzwMjCFlhgP_sAX2H7di" name="Page-1">
    <mxGraphModel dx="2066" dy="825" grid="1" gridSize="10" guides="1" tooltips="1" connect="1" arrows="1" fold="1" page="1" pageScale="1" pageWidth="900" pageHeight="900" math="0" shadow="0">
      <root>
        <mxCell id="0" />
        <mxCell id="1" parent="0" />
        <mxCell id="9ik0aXLqsEscKUGBiLV2-11" style="edgeStyle=orthogonalEdgeStyle;rounded=0;orthogonalLoop=1;jettySize=auto;html=1;fontColor=#4D4D4D;" edge="1" parent="1" source="9ik0aXLqsEscKUGBiLV2-4" target="9ik0aXLqsEscKUGBiLV2-2">
          <mxGeometry relative="1" as="geometry" />
        </mxCell>
        <mxCell id="9ik0aXLqsEscKUGBiLV2-13" style="edgeStyle=orthogonalEdgeStyle;rounded=0;orthogonalLoop=1;jettySize=auto;html=1;fontColor=#4D4D4D;" edge="1" parent="1" source="9ik0aXLqsEscKUGBiLV2-4" target="9ik0aXLqsEscKUGBiLV2-6">
          <mxGeometry relative="1" as="geometry" />
        </mxCell>
        <mxCell id="9ik0aXLqsEscKUGBiLV2-14" value="Atendimento ao Cliente" style="edgeLabel;html=1;align=center;verticalAlign=middle;resizable=0;points=[];fontColor=#4D4D4D;" vertex="1" connectable="0" parent="9ik0aXLqsEscKUGBiLV2-13">
          <mxGeometry x="-0.7279" y="1" relative="1" as="geometry">
            <mxPoint x="48" y="1" as="offset" />
          </mxGeometry>
        </mxCell>
        <mxCell id="9ik0aXLqsEscKUGBiLV2-4" value="" style="points=[];aspect=fixed;html=1;align=center;shadow=0;dashed=0;image;image=img/lib/allied_telesis/buildings/Large_Building.svg;" vertex="1" parent="1">
          <mxGeometry x="330" y="160" width="165" height="165" as="geometry" />
        </mxCell>
        <mxCell id="9ik0aXLqsEscKUGBiLV2-6" value="" style="verticalLabelPosition=bottom;html=1;fillColor=#60a917;strokeColor=#2D7600;verticalAlign=top;pointerEvents=1;align=center;shape=mxgraph.cisco_safe.people_places_things_icons.icon1;fontColor=#ffffff;" vertex="1" parent="1">
          <mxGeometry x="630" y="452" width="148.8" height="160" as="geometry" />
        </mxCell>
        <mxCell id="9ik0aXLqsEscKUGBiLV2-10" style="edgeStyle=orthogonalEdgeStyle;rounded=0;orthogonalLoop=1;jettySize=auto;html=1;fontColor=#4D4D4D;" edge="1" parent="1" source="9ik0aXLqsEscKUGBiLV2-1" target="9ik0aXLqsEscKUGBiLV2-4">
          <mxGeometry relative="1" as="geometry" />
        </mxCell>
        <mxCell id="9ik0aXLqsEscKUGBiLV2-1" value="" style="shape=mxgraph.signs.transportation.truck_1;html=1;pointerEvents=1;fillColor=#1ba1e2;verticalLabelPosition=bottom;verticalAlign=top;align=center;fontColor=#ffffff;strokeColor=#FFFFFF;flipH=1;" vertex="1" parent="1">
          <mxGeometry x="150" y="500.18" width="123.53" height="63.64" as="geometry" />
        </mxCell>
        <mxCell id="9ik0aXLqsEscKUGBiLV2-2" value="" style="shape=mxgraph.signs.transportation.truck_1;html=1;pointerEvents=1;fillColor=#a20025;verticalLabelPosition=bottom;verticalAlign=top;align=center;flipV=0;flipH=0;fontColor=#ffffff;strokeColor=#FFFFFF;" vertex="1" parent="1">
          <mxGeometry x="50" y="563.82" width="116.47" height="60" as="geometry" />
        </mxCell>
        <mxCell id="9ik0aXLqsEscKUGBiLV2-15" value="GREN ANGELS" style="text;html=1;align=center;verticalAlign=middle;resizable=0;points=[];autosize=1;fontColor=#4D4D4D;" vertex="1" parent="1">
          <mxGeometry x="650" y="623.82" width="100" height="20" as="geometry" />
        </mxCell>
        <mxCell id="9ik0aXLqsEscKUGBiLV2-16" value="EXPEDITIONS" style="text;html=1;align=center;verticalAlign=middle;resizable=0;points=[];autosize=1;fontColor=#4D4D4D;" vertex="1" parent="1">
          <mxGeometry x="175" y="583.8199999999999" width="100" height="20" as="geometry" />
        </mxCell>
        <mxCell id="9ik0aXLqsEscKUGBiLV2-18" value="WORK CENTER" style="text;html=1;align=center;verticalAlign=middle;resizable=0;points=[];autosize=1;fontColor=#4D4D4D;" vertex="1" parent="1">
          <mxGeometry x="357.5" y="120" width="110" height="20" as="geometry" />
        </mxCell>
      </root>
    </mxGraphModel>
  </diagram>
</mxfile>
